<svg xmlns="http://www.w3.org/2000/svg" viewBox="0 0 500 512" width="512" height="512">

  <path d="m0,0h512v512h-512z" />
  <g transform="matrix(18.68858,0,0,18.68858,3236.13372,-7331.74149)">
    <path
       d="m-159.5443,395.1515c0,0-.2584,1.9874-2.6499,2.6499s-6.9162,0-6.9162,0l-.7682.7058 .7682.8577c0,0 4.3922-.6956 6.7838,0s2.7824,2.7824 2.7824,2.7824 .3909-2.0868 2.7824-2.7824 6.7838,0 6.7838,0l.8338-.8014-.8338-.762c0,0-4.5247.6625-6.9162,0s-2.6499-2.6499-2.6499-2.6499z"
       fill="#787878" />
    <g transform="matrix(1.02476,0,0,1.02476,-756.88911,-4.87595)">
      <path d="m570.9471,401.6066c0,3.4091 5.6348,3.4115 5.6348,0l-2.9271-7.1702-2.7077,7.1702z" fill="none" stroke="#787878" />
      <path d="m570.9852,401.4289h5.4489c-.6633,3.3399-5.253,2.9577-5.4489,0z" fill="#787878" />
    </g>
    <path d="m-159.5115,398.4079-2.3701,12.8709 1.1442,1.6209c-1.1708.5111-2.1045,1.7839-2.1045,3.8207h6.6608c0-2.0316-.9219-3.3355-2.084-3.8496l1.1238-1.592-2.3701-12.8709z" fill="#787878" />
    <path d="m-151.1678,417.6642h-16.6875c0-1.2075 3.738-2.1875 8.3438-2.1875s8.3438.98 8.3438,2.1875z" fill="#787878" />
    <g transform="matrix(1.02476,0,0,1.02476,-737.88561,-4.87595)" >
      <path d="m570.9471,401.6066c0,3.4091 5.6348,3.4115 5.6348,0l-2.9271-7.1702-2.7077,7.1702z" fill="none" stroke="#787878" />
      <path d="m570.9852,401.4289h5.4489c-.6633,3.3399-5.253,2.9577-5.4489,0z" fill="#787878"  />
    </g>
  </g>
  <path
     style="fill:#ffffff;"
     d="m 0,8 0,-8 8,0 8,0 0,8 0,8 -8,0 -8,0 0,-8 z m 12.867925,6.788722 c 0,-0.0944 -0.12793,-0.300427 -0.239257,-0.385324 -0.41608,-0.317301 -1.207455,-0.560206 -2.454793,-0.753478 L 9.8760521,13.603774 9.8244309,13.396226 C 9.7303374,13.017915 9.5187494,12.643528 9.2478509,12.376018 9.1104902,12.240374 8.9433419,12.106711 8.8764106,12.078987 8.8094789,12.051263 8.754717,12.013847 8.754717,11.995841 c 0,-0.01801 0.1358098,-0.223966 0.3017996,-0.457686 0.1659898,-0.233721 0.3018389,-0.453723 0.3018868,-0.488893 7.55e-5,-0.05593 -1.02558,-5.6854865 -1.0764106,-5.9081345 -0.027309,-0.1196196 0.4847895,-0.6297441 0.7944936,-0.7914298 0.6894061,-0.3599154 1.7927956,-0.466632 3.3884726,-0.327723 0.37725,0.032841 0.691021,0.064822 0.697268,0.07107 0.0062,0.00625 -0.346094,0.9579381 -0.782981,2.1148683 -0.528817,1.4003698 -0.79434,2.1517506 -0.79434,2.2478276 0,1.1678411 1.218835,2.0003766 2.501984,1.7089996 0.836236,-0.1898909 1.384735,-0.7781158 1.474492,-1.5812826 L 15.586846,8.3555943 14.684457,6.1494951 13.782067,3.9433962 13.919335,3.7985234 14.056604,3.6536508 13.815602,3.4305989 C 13.540843,3.1763041 13.603692,3.1868502 12.830189,3.2652468 11.990038,3.3503983 10.958398,3.3755359 10.387633,3.3247637 9.550014,3.2502537 9.0579906,3.0830749 8.6317102,2.7281398 8.3097309,2.4600494 8.1506702,2.2127294 7.9813958,1.7169811 7.9611151,1.6575855 7.9368902,1.6927395 7.8676691,1.8820174 7.6938404,2.3573326 7.3469166,2.7465265 6.8800483,2.9899727 6.2361706,3.3257195 5.1032272,3.4319738 3.5471698,3.3025505 3.1839623,3.2723411 2.759434,3.2378437 2.6037736,3.2258895 L 2.3207547,3.2041548 2.1030232,3.4124589 1.8852917,3.620763 2.0166998,3.7662158 2.1481078,3.9116691 1.3193369,6.1075547 C 0.42268596,8.4832936 0.43368751,8.4435921 0.54876766,8.8882981 0.79795792,9.8512479 1.9357665,10.43278 3.0253975,10.154099 3.416684,10.054025 3.6319774,9.9449257 3.87316,9.7244985 4.2355936,9.3932543 4.3926358,9.0960449 4.4529645,8.627194 L 4.4875392,8.3584906 3.6197931,6.2308947 C 3.1425327,5.060717 2.7568929,4.0986355 2.7628159,4.0929355 2.7965512,4.0604702 4.1852974,3.9622691 4.6103049,3.9622958 5.5910023,3.9623713 6.2442604,4.0678113 6.7294626,4.3043864 7.0155189,4.4438619 7.3798487,4.7398623 7.5476064,4.9690883 L 7.6630675,5.1268555 7.1307917,8.0256921 c -0.2927521,1.59436 -0.5405019,2.9333679 -0.5505559,2.9755729 -0.012741,0.05349 0.080743,0.21711 0.3085291,0.540012 0.1797445,0.254801 0.3207574,0.467983 0.3133615,0.473738 -0.0074,0.0058 -0.1111136,0.07432 -0.2304834,0.152373 -0.4019121,0.262793 -0.6771921,0.648708 -0.8232185,1.154069 L 6.0640415,13.613485 5.7207,13.659132 C 4.8986717,13.76842 3.9990483,14.010235 3.5726033,14.236531 3.3243109,14.368289 3.0943396,14.61165 3.0943396,14.742642 l 0,0.08755 4.8867925,0 c 3.5258309,0 4.8867929,-0.01155 4.8867929,-0.04147 l 0,0 z"
     transform="scale(32,32)" />
  <path
     style="fill:#ffffff"
     d="M 1.2405153,8.0849057 C 1.2787967,7.9863208 1.5525192,7.2603774 1.8487874,6.4716981 2.1450557,5.6830189 2.3984321,5.0253376 2.4118462,5.0101842 2.4252602,4.9950308 2.7146266,5.6657855 3.0548826,6.5007503 3.3951386,7.335715 3.6962701,8.0740566 3.7240638,8.1415094 l 0.050534,0.1226415 -1.3018425,0 -1.3018426,0 0.069603,-0.1792452 z"
     transform="scale(32,32)" />
  <path
     style="fill:#ffffff"
     d="m 12.884013,6.6419888 c 0.336536,-0.8921891 0.620558,-1.6308364 0.63116,-1.6414383 0.0137,-0.013704 1.034922,2.4372347 1.346462,3.2315303 0.0069,0.017639 -0.57289,0.03207 -1.288463,0.03207 l -1.301042,0 0.611883,-1.6221621 z"
     transform="scale(32,32)" />
</svg>
