<?xml version="1.0" encoding="UTF-8" standalone="no"?>
<!-- Created with Inkscape (http://www.inkscape.org/) -->

<svg xmlns="http://www.w3.org/2000/svg" width="32" height="32" viewBox="0 0 32 32">
  <g transform="translate(12.203128,-1032.7079)">
    <path stroke="#707070"
       d="m 4.0221594,1033.4673 -0.6529708,2.5973 c -3.92795914,-0.045 -5.0741444,-0.041 -9.7862376,-0.041 -1.2860273,5.7137 -3.3015993,9.7266 -5.033386,17.0726 0,2.7082 2.8955118,4.9061 5.1309802,4.9061 2.2354686,0 5.1309814,-2.1979 5.1309814,-4.9061 l -4.1927984,-16.9868 c 5.82226877,0.076 4.58900161,0.9518 9.5122527,1.7476 l -0.6529607,25.3804 -1.1735073,-2.7322 c -2.49144616,-0.063 -2.81151443,1.5688 -3.9878867,3.0722 l -2.1765619,0.3848 15.9465587,0 -2.1765634,-0.3848 c -1.1599958,-1.56 -1.4279948,-3.1053 -4.0555079,-3.1384 l -1.1059855,2.7984 -0.5441462,-25.4306 c 4.9400559,-0.7189 3.6011708,-1.7335 10.348275,-1.7489 -0.976001,1.6904 -4.246692,13.1487 -5.1375255,17.0383 0,2.7082 2.8955045,4.9061 5.1309775,4.9061 2.235465,0 5.130975,-2.1979 5.130975,-4.9061 -1.387171,-7.7112 -3.515273,-13.4602 -4.380377,-17.0383 -3.054091,-0.01 -1.131594,-0.1054 -10.5481788,0.01 l -0.435314,-2.5973 z"
       style="fill:none;stroke-width:1.5053854;stroke-miterlimit:4;stroke-dasharray:none;stroke-opacity:1" />
    <path stroke="#707070"
       style="fill:#707070;fill-opacity:1;fill-rule:evenodd;stroke-width:0.05385811px;stroke-linecap:butt;stroke-linejoin:miter;stroke-opacity:1"
       d="m -11.333122,1053.4617 10.195706,-0.1323 c 0,0 -0.067531,4.432 -4.4564025,4.2997 -4.3888785,-0.1323 -5.7393035,-4.1674 -5.7393035,-4.1674 z" />
    <path stroke="#707070"
       d="m 9.7795656,1053.4617 10.1957004,-0.1323 c 0,0 -0.06752,4.432 -4.456396,4.2997 -4.388882,-0.1323 -5.7393044,-4.1674 -5.7393044,-4.1674 z"
       style="fill:#707070;fill-opacity:1;fill-rule:evenodd;stroke-width:0.05385811px;stroke-linecap:butt;stroke-linejoin:miter;stroke-opacity:1" />
  </g>
</svg> 
