<?xml version="1.0" encoding="UTF-8" standalone="no"?>
<svg
   xmlns:dc="http://purl.org/dc/elements/1.1/"
   xmlns:cc="http://creativecommons.org/ns#"
   xmlns:rdf="http://www.w3.org/1999/02/22-rdf-syntax-ns#"
   xmlns:svg="http://www.w3.org/2000/svg"
   xmlns="http://www.w3.org/2000/svg"
   xmlns:sodipodi="http://sodipodi.sourceforge.net/DTD/sodipodi-0.dtd"
   xmlns:inkscape="http://www.inkscape.org/namespaces/inkscape"
   viewBox="0 0 512 512"
   width="16"
   height="16"
   id="svg3099"
   version="1.1"
   inkscape:version="0.48.2 r9819"
   sodipodi:docname="balance.000000.svg"
   inkscape:export-filename="/Users/gordon/Sites/ces8/modules/dev/mutual_credit/images/balance.000000.png"
   inkscape:export-xdpi="90"
   inkscape:export-ydpi="90">
  <metadata
     id="metadata3127">
    <rdf:RDF>
      <cc:Work
         rdf:about="">
        <dc:format>image/svg+xml</dc:format>
        <dc:type
           rdf:resource="http://purl.org/dc/dcmitype/StillImage" />
        <dc:title></dc:title>
      </cc:Work>
    </rdf:RDF>
  </metadata>
  <defs
     id="defs3125">
    <marker
       markerWidth="2.589566"
       markerHeight="3.2636575"
       orient="auto"
       id="marker3135">
      <path
         inkscape:connector-curvature="0"
         id="path3133"
         d="m -0.68289998,0.00966677 c 0.336536,-0.8921891 0.620558,-1.63083637 0.63116,-1.64143827 0.0137,-0.013704 1.034922,2.43723467 1.34646198,3.2315303 0.0069,0.017639 -0.57288998,0.03207 -1.28846298,0.03207 l -1.30104202,0 0.61188302,-1.62216213 z"
         style="fill:#ffffff" />
    </marker>
  </defs>
  <sodipodi:namedview
     pagecolor="#ffffff"
     bordercolor="#666666"
     borderopacity="1"
     objecttolerance="10"
     gridtolerance="10"
     guidetolerance="10"
     inkscape:pageopacity="0"
     inkscape:pageshadow="2"
     inkscape:window-width="1206"
     inkscape:window-height="793"
     id="namedview3123"
     showgrid="false"
     inkscape:zoom="26.5"
     inkscape:cx="8"
     inkscape:cy="8"
     inkscape:window-x="0"
     inkscape:window-y="0"
     inkscape:window-maximized="0"
     inkscape:current-layer="svg3099" />
  <path
     d="m0,0h512v512h-512z"
     id="path3101" />
  <g
     transform="matrix(18.68858,0,0,18.68858,3236.13372,-7331.74149)"
     id="g3103">
    <path
       d="m-159.5443,395.1515c0,0-.2584,1.9874-2.6499,2.6499s-6.9162,0-6.9162,0l-.7682.7058 .7682.8577c0,0 4.3922-.6956 6.7838,0s2.7824,2.7824 2.7824,2.7824 .3909-2.0868 2.7824-2.7824 6.7838,0 6.7838,0l.8338-.8014-.8338-.762c0,0-4.5247.6625-6.9162,0s-2.6499-2.6499-2.6499-2.6499z"
       fill="#787878"
       id="path3105" />
    <g
       transform="matrix(1.02476,0,0,1.02476,-756.88911,-4.87595)"
       id="g3107">
      <path
         d="m570.9471,401.6066c0,3.4091 5.6348,3.4115 5.6348,0l-2.9271-7.1702-2.7077,7.1702z"
         fill="none"
         stroke="#787878"
         stroke-width=".9758"
         id="path3109" />
      <path
         d="m570.9852,401.4289h5.4489c-.6633,3.3399-5.253,2.9577-5.4489,0z"
         fill="#787878"
         fill-rule="evenodd"
         id="path3111" />
    </g>
    <path
       d="m-159.5115,398.4079-2.3701,12.8709 1.1442,1.6209c-1.1708.5111-2.1045,1.7839-2.1045,3.8207h6.6608c0-2.0316-.9219-3.3355-2.084-3.8496l1.1238-1.592-2.3701-12.8709z"
       fill="#787878"
       fill-rule="evenodd"
       id="path3113" />
    <path
       d="m-151.1678,417.6642h-16.6875c0-1.2075 3.738-2.1875 8.3438-2.1875s8.3438.98 8.3438,2.1875z"
       fill="#787878"
       id="path3115" />
    <g
       transform="matrix(1.02476,0,0,1.02476,-737.88561,-4.87595)"
       id="g3117">
      <path
         d="m570.9471,401.6066c0,3.4091 5.6348,3.4115 5.6348,0l-2.9271-7.1702-2.7077,7.1702z"
         fill="none"
         stroke="#787878"
         stroke-width=".9758"
         id="path3119" />
      <path
         d="m570.9852,401.4289h5.4489c-.6633,3.3399-5.253,2.9577-5.4489,0z"
         fill="#787878"
         fill-rule="evenodd"
         id="path3121" />
    </g>
  </g>
  <path
     style="fill:#ffffff;stroke:none"
     d="m 0,8 0,-8 8,0 8,0 0,8 0,8 -8,0 -8,0 0,-8 z m 12.867925,6.788722 c 0,-0.0944 -0.12793,-0.300427 -0.239257,-0.385324 -0.41608,-0.317301 -1.207455,-0.560206 -2.454793,-0.753478 L 9.8760521,13.603774 9.8244309,13.396226 C 9.7303374,13.017915 9.5187494,12.643528 9.2478509,12.376018 9.1104902,12.240374 8.9433419,12.106711 8.8764106,12.078987 8.8094789,12.051263 8.754717,12.013847 8.754717,11.995841 c 0,-0.01801 0.1358098,-0.223966 0.3017996,-0.457686 0.1659898,-0.233721 0.3018389,-0.453723 0.3018868,-0.488893 7.55e-5,-0.05593 -1.02558,-5.6854865 -1.0764106,-5.9081345 -0.027309,-0.1196196 0.4847895,-0.6297441 0.7944936,-0.7914298 0.6894061,-0.3599154 1.7927956,-0.466632 3.3884726,-0.327723 0.37725,0.032841 0.691021,0.064822 0.697268,0.07107 0.0062,0.00625 -0.346094,0.9579381 -0.782981,2.1148683 -0.528817,1.4003698 -0.79434,2.1517506 -0.79434,2.2478276 0,1.1678411 1.218835,2.0003766 2.501984,1.7089996 0.836236,-0.1898909 1.384735,-0.7781158 1.474492,-1.5812826 L 15.586846,8.3555943 14.684457,6.1494951 13.782067,3.9433962 13.919335,3.7985234 14.056604,3.6536508 13.815602,3.4305989 C 13.540843,3.1763041 13.603692,3.1868502 12.830189,3.2652468 11.990038,3.3503983 10.958398,3.3755359 10.387633,3.3247637 9.550014,3.2502537 9.0579906,3.0830749 8.6317102,2.7281398 8.3097309,2.4600494 8.1506702,2.2127294 7.9813958,1.7169811 7.9611151,1.6575855 7.9368902,1.6927395 7.8676691,1.8820174 7.6938404,2.3573326 7.3469166,2.7465265 6.8800483,2.9899727 6.2361706,3.3257195 5.1032272,3.4319738 3.5471698,3.3025505 3.1839623,3.2723411 2.759434,3.2378437 2.6037736,3.2258895 L 2.3207547,3.2041548 2.1030232,3.4124589 1.8852917,3.620763 2.0166998,3.7662158 2.1481078,3.9116691 1.3193369,6.1075547 C 0.42268596,8.4832936 0.43368751,8.4435921 0.54876766,8.8882981 0.79795792,9.8512479 1.9357665,10.43278 3.0253975,10.154099 3.416684,10.054025 3.6319774,9.9449257 3.87316,9.7244985 4.2355936,9.3932543 4.3926358,9.0960449 4.4529645,8.627194 L 4.4875392,8.3584906 3.6197931,6.2308947 C 3.1425327,5.060717 2.7568929,4.0986355 2.7628159,4.0929355 2.7965512,4.0604702 4.1852974,3.9622691 4.6103049,3.9622958 5.5910023,3.9623713 6.2442604,4.0678113 6.7294626,4.3043864 7.0155189,4.4438619 7.3798487,4.7398623 7.5476064,4.9690883 L 7.6630675,5.1268555 7.1307917,8.0256921 c -0.2927521,1.59436 -0.5405019,2.9333679 -0.5505559,2.9755729 -0.012741,0.05349 0.080743,0.21711 0.3085291,0.540012 0.1797445,0.254801 0.3207574,0.467983 0.3133615,0.473738 -0.0074,0.0058 -0.1111136,0.07432 -0.2304834,0.152373 -0.4019121,0.262793 -0.6771921,0.648708 -0.8232185,1.154069 L 6.0640415,13.613485 5.7207,13.659132 C 4.8986717,13.76842 3.9990483,14.010235 3.5726033,14.236531 3.3243109,14.368289 3.0943396,14.61165 3.0943396,14.742642 l 0,0.08755 4.8867925,0 c 3.5258309,0 4.8867929,-0.01155 4.8867929,-0.04147 l 0,0 z"
     id="path3129"
     inkscape:connector-curvature="0"
     transform="scale(32,32)" />
  <path
     style="fill:#ffffff"
     d="M 1.2405153,8.0849057 C 1.2787967,7.9863208 1.5525192,7.2603774 1.8487874,6.4716981 2.1450557,5.6830189 2.3984321,5.0253376 2.4118462,5.0101842 2.4252602,4.9950308 2.7146266,5.6657855 3.0548826,6.5007503 3.3951386,7.335715 3.6962701,8.0740566 3.7240638,8.1415094 l 0.050534,0.1226415 -1.3018425,0 -1.3018426,0 0.069603,-0.1792452 z"
     id="path3131"
     inkscape:connector-curvature="0"
     transform="scale(32,32)" />
  <path
     style="fill:#ffffff"
     d="m 12.884013,6.6419888 c 0.336536,-0.8921891 0.620558,-1.6308364 0.63116,-1.6414383 0.0137,-0.013704 1.034922,2.4372347 1.346462,3.2315303 0.0069,0.017639 -0.57289,0.03207 -1.288463,0.03207 l -1.301042,0 0.611883,-1.6221621 z"
     id="path3138"
     inkscape:connector-curvature="0"
     transform="scale(32,32)" />
  <path
     style="fill:#000000"
     d="m 7.5566038,14.801732 c -4.9322326,-0.01069 -4.5477473,0.01412 -4.2851828,-0.276508 0.3144039,-0.348008 1.3044726,-0.68086 2.4691798,-0.830117 l 0.3632422,-0.04655 0.043981,-0.196529 c 0.079961,-0.357306 0.2854389,-0.72329 0.5604853,-0.998303 0.1396747,-0.139659 0.3267921,-0.291075 0.4158159,-0.336481 L 7.2859875,12.034688 7.2018732,11.91357 C 7.1556102,11.846955 7.0029317,11.630277 6.8625875,11.432062 L 6.6074162,11.071672 7.1527649,8.1137547 C 7.4527064,6.4869004 7.6981132,5.1327816 7.6981132,5.1046019 c 0,-0.02818 -0.1400943,-0.1923588 -0.3113207,-0.3648425 C 6.8973675,4.2467408 6.3972664,4.0441942 5.4545102,3.957163 4.7246272,3.8897835 2.7169811,3.9857619 2.7169811,4.0880346 c 0,0.021313 0.3893271,0.992335 0.8651713,2.1578265 L 4.4473238,8.3649362 4.414466,8.6258645 C 4.3174909,9.3959642 3.8065503,9.9273438 2.9622642,10.136159 2.3023008,10.299386 1.5456986,10.104908 1.0695843,9.6496626 0.70067411,9.2969219 0.49306425,8.8125385 0.54020167,8.4145366 0.55198583,8.3150381 0.92771408,7.2627355 1.3751533,6.0760864 1.8225926,4.8894377 2.1886792,3.9079624 2.1886792,3.8950303 c 0,-0.012932 -0.055189,-0.080563 -0.1226415,-0.1502912 L 1.9433962,3.6179606 2.1698113,3.4130774 C 2.331972,3.2663382 2.4176446,3.213713 2.4716981,3.2276409 c 0.2862399,0.073755 1.3550439,0.1440899 2.2075472,0.145273 1.0799958,0.0015 1.494197,-0.049136 2,-0.2444918 C 7.2606445,2.9038682 7.7829777,2.36694 7.9238347,1.8490566 c 0.024577,-0.090362 0.027659,-0.088323 0.073096,0.04835 0.1489513,0.4480412 0.5824347,0.9288869 1.0274792,1.1397414 0.7617845,0.3609204 1.9439152,0.4411374 3.8538872,0.2615169 l 0.670749,-0.06308 0.219603,0.2094654 0.219603,0.2094654 -0.129476,0.1294755 -0.129475,0.1294754 0.913348,2.2387093 0.913347,2.2387095 -0.04547,0.2668215 c -0.04561,0.2675989 -0.06444,0.3637524 -0.07814,0.398897 -0.004,0.010377 -0.0053,0.031604 -0.0029,0.04717 0.0025,0.015566 -0.01351,0.028302 -0.03549,0.028302 -0.02198,0 -0.02947,0.016981 -0.01664,0.037736 0.01283,0.020755 0.0096,0.037766 -0.0072,0.037803 -0.01679,3.7e-5 -0.07869,0.076293 -0.137543,0.169457 -0.295645,0.4679649 -1.005239,0.8222403 -1.628835,0.8132193 -0.794633,-0.0115 -1.458298,-0.3721593 -1.771628,-0.9627793 -0.146342,-0.2758506 -0.225974,-0.6070189 -0.199298,-0.8288204 0.01015,-0.084374 0.362695,-1.0618988 0.783438,-2.1722762 0.420743,-1.1103774 0.772358,-2.0543519 0.781367,-2.0977212 0.01569,-0.075517 -0.0081,-0.081105 -0.562335,-0.1320755 -0.8101,-0.074502 -2.211345,-0.065656 -2.6691384,0.016849 -0.740046,0.1333745 -1.3671758,0.4983324 -1.6811913,0.9783687 -0.049484,0.075646 -0.011726,0.3143412 0.3952559,2.4987298 0.2474811,1.3283019 0.4592237,2.4890298 0.4705388,2.579396 0.011315,0.09037 0.036609,0.194264 0.056209,0.230887 0.0196,0.03662 0.027154,0.07507 0.016787,0.08544 -0.010367,0.01037 -8.302e-4,0.09326 0.021193,0.184206 0.1115868,0.460807 0.1101298,0.466567 -0.2466091,0.974655 -0.1784471,0.254155 -0.3190045,0.46574 -0.3123494,0.470189 0.00666,0.0044 0.099244,0.06273 0.2057532,0.129524 0.2697928,0.169181 0.5506547,0.478327 0.694243,0.764159 0.066843,0.133059 0.1364978,0.247621 0.1547891,0.254582 0.018291,0.007 0.024017,0.02761 0.012724,0.04588 -0.011293,0.01827 0.00611,0.124859 0.038667,0.23686 l 0.059199,0.203638 0.3478909,0.04592 c 1.055363,0.139306 1.996555,0.42599 2.370269,0.721977 0.125623,0.09949 0.26064,0.28157 0.26064,0.351482 0,0.03622 -0.91264,0.04183 -5.2735848,0.03238 l -4e-7,0 z M 3.8115668,8.2735849 c 6.295e-4,-0.07242 -1.3799521,-3.3991944 -1.4009023,-3.3757406 -0.025397,0.028432 -1.278589,3.3424161 -1.278589,3.381144 0,0.012594 0.6028302,0.022899 1.3396226,0.022899 0.7367925,0 1.3397334,-0.012736 1.3398687,-0.028302 z m 11.0948852,0 c 0.002,-0.072015 -1.376835,-3.4027018 -1.398263,-3.3775821 -0.01767,0.020716 -1.134141,2.9660934 -1.273148,3.3587142 -0.01316,0.037165 0.268282,0.04717 1.326959,0.04717 0.739014,0 1.344017,-0.012736 1.344452,-0.028302 l 0,0 z"
     id="path3239"
     inkscape:connector-curvature="0"
     transform="scale(32,32)" />
</svg>
